<mxfile host="app.diagrams.net" modified="2022-06-23T09:11:44.152Z" agent="5.0 (Windows NT 10.0; Win64; x64) AppleWebKit/537.36 (KHTML, like Gecko) Chrome/102.0.5005.124 Safari/537.36 Edg/102.0.1245.41" etag="iR--pS1y-4j25i006j-6" version="20.0.1" type="github">
  <diagram id="C5RBs43oDa-KdzZeNtuy" name="Page-1">
    <mxGraphModel dx="1422" dy="762" grid="1" gridSize="10" guides="1" tooltips="1" connect="1" arrows="1" fold="1" page="1" pageScale="1" pageWidth="827" pageHeight="1169" math="0" shadow="0">
      <root>
        <mxCell id="WIyWlLk6GJQsqaUBKTNV-0" />
        <mxCell id="WIyWlLk6GJQsqaUBKTNV-1" parent="WIyWlLk6GJQsqaUBKTNV-0" />
        <mxCell id="o0RipvDqpUGlfok2w_ck-6" style="edgeStyle=orthogonalEdgeStyle;rounded=0;orthogonalLoop=1;jettySize=auto;html=1;exitX=1;exitY=0.5;exitDx=0;exitDy=0;entryX=0.5;entryY=0;entryDx=0;entryDy=0;" edge="1" parent="WIyWlLk6GJQsqaUBKTNV-1" source="o0RipvDqpUGlfok2w_ck-11" target="o0RipvDqpUGlfok2w_ck-1">
          <mxGeometry relative="1" as="geometry">
            <mxPoint x="160" y="350" as="sourcePoint" />
          </mxGeometry>
        </mxCell>
        <mxCell id="o0RipvDqpUGlfok2w_ck-8" style="edgeStyle=orthogonalEdgeStyle;rounded=0;orthogonalLoop=1;jettySize=auto;html=1;exitX=1;exitY=0.5;exitDx=0;exitDy=0;entryX=0;entryY=0.5;entryDx=0;entryDy=0;" edge="1" parent="WIyWlLk6GJQsqaUBKTNV-1" source="o0RipvDqpUGlfok2w_ck-1" target="o0RipvDqpUGlfok2w_ck-7">
          <mxGeometry relative="1" as="geometry" />
        </mxCell>
        <mxCell id="o0RipvDqpUGlfok2w_ck-1" value="5-gram语言模型" style="rounded=1;whiteSpace=wrap;html=1;" vertex="1" parent="WIyWlLk6GJQsqaUBKTNV-1">
          <mxGeometry x="240" y="495" width="100" height="50" as="geometry" />
        </mxCell>
        <mxCell id="o0RipvDqpUGlfok2w_ck-5" style="edgeStyle=orthogonalEdgeStyle;rounded=0;orthogonalLoop=1;jettySize=auto;html=1;exitX=1;exitY=0.5;exitDx=0;exitDy=0;exitPerimeter=0;entryX=0;entryY=0.5;entryDx=0;entryDy=0;" edge="1" parent="WIyWlLk6GJQsqaUBKTNV-1" source="o0RipvDqpUGlfok2w_ck-2" target="o0RipvDqpUGlfok2w_ck-1">
          <mxGeometry relative="1" as="geometry" />
        </mxCell>
        <mxCell id="o0RipvDqpUGlfok2w_ck-2" value="易混词大集合&lt;br&gt;（从训练集中抽取）" style="shape=cylinder3;whiteSpace=wrap;html=1;boundedLbl=1;backgroundOutline=1;size=15;" vertex="1" parent="WIyWlLk6GJQsqaUBKTNV-1">
          <mxGeometry x="90" y="470" width="80" height="100" as="geometry" />
        </mxCell>
        <mxCell id="o0RipvDqpUGlfok2w_ck-10" value="" style="edgeStyle=orthogonalEdgeStyle;rounded=0;orthogonalLoop=1;jettySize=auto;html=1;" edge="1" parent="WIyWlLk6GJQsqaUBKTNV-1" source="o0RipvDqpUGlfok2w_ck-7" target="o0RipvDqpUGlfok2w_ck-9">
          <mxGeometry relative="1" as="geometry" />
        </mxCell>
        <mxCell id="o0RipvDqpUGlfok2w_ck-7" value="从易混词大集合中为每个错误位置选择k个纠正词的候选" style="shape=hexagon;perimeter=hexagonPerimeter2;whiteSpace=wrap;html=1;fixedSize=1;" vertex="1" parent="WIyWlLk6GJQsqaUBKTNV-1">
          <mxGeometry x="410" y="480" width="120" height="80" as="geometry" />
        </mxCell>
        <mxCell id="o0RipvDqpUGlfok2w_ck-9" value="纠正词候选" style="whiteSpace=wrap;html=1;" vertex="1" parent="WIyWlLk6GJQsqaUBKTNV-1">
          <mxGeometry x="610" y="500" width="90" height="40" as="geometry" />
        </mxCell>
        <mxCell id="o0RipvDqpUGlfok2w_ck-11" value="&lt;span style=&quot;&quot;&gt;已标注错误位置和错误类型的文本&lt;/span&gt;" style="rounded=0;whiteSpace=wrap;html=1;" vertex="1" parent="WIyWlLk6GJQsqaUBKTNV-1">
          <mxGeometry x="70" y="330" width="110" height="60" as="geometry" />
        </mxCell>
        <mxCell id="o0RipvDqpUGlfok2w_ck-16" style="edgeStyle=orthogonalEdgeStyle;rounded=0;orthogonalLoop=1;jettySize=auto;html=1;exitX=1;exitY=0.5;exitDx=0;exitDy=0;entryX=0;entryY=0.5;entryDx=0;entryDy=0;" edge="1" parent="WIyWlLk6GJQsqaUBKTNV-1" source="o0RipvDqpUGlfok2w_ck-12" target="o0RipvDqpUGlfok2w_ck-13">
          <mxGeometry relative="1" as="geometry" />
        </mxCell>
        <mxCell id="o0RipvDqpUGlfok2w_ck-12" value="&lt;span style=&quot;&quot;&gt;原始错误文本&lt;/span&gt;" style="rounded=0;whiteSpace=wrap;html=1;" vertex="1" parent="WIyWlLk6GJQsqaUBKTNV-1">
          <mxGeometry x="70" y="70" width="110" height="60" as="geometry" />
        </mxCell>
        <mxCell id="o0RipvDqpUGlfok2w_ck-17" style="edgeStyle=orthogonalEdgeStyle;rounded=0;orthogonalLoop=1;jettySize=auto;html=1;exitX=1;exitY=0.5;exitDx=0;exitDy=0;entryX=0;entryY=0.5;entryDx=0;entryDy=0;" edge="1" parent="WIyWlLk6GJQsqaUBKTNV-1" source="o0RipvDqpUGlfok2w_ck-13" target="o0RipvDqpUGlfok2w_ck-14">
          <mxGeometry relative="1" as="geometry" />
        </mxCell>
        <mxCell id="o0RipvDqpUGlfok2w_ck-13" value="Bert序列标注模型" style="rounded=1;whiteSpace=wrap;html=1;" vertex="1" parent="WIyWlLk6GJQsqaUBKTNV-1">
          <mxGeometry x="250" y="75" width="110" height="50" as="geometry" />
        </mxCell>
        <mxCell id="o0RipvDqpUGlfok2w_ck-15" style="edgeStyle=orthogonalEdgeStyle;rounded=0;orthogonalLoop=1;jettySize=auto;html=1;exitX=1;exitY=0.5;exitDx=0;exitDy=0;entryX=0.5;entryY=0;entryDx=0;entryDy=0;" edge="1" parent="WIyWlLk6GJQsqaUBKTNV-1" source="o0RipvDqpUGlfok2w_ck-14" target="o0RipvDqpUGlfok2w_ck-11">
          <mxGeometry relative="1" as="geometry" />
        </mxCell>
        <mxCell id="o0RipvDqpUGlfok2w_ck-14" value="标注错误位置和类型&lt;br&gt;（多模型投票）" style="shape=hexagon;perimeter=hexagonPerimeter2;whiteSpace=wrap;html=1;fixedSize=1;" vertex="1" parent="WIyWlLk6GJQsqaUBKTNV-1">
          <mxGeometry x="450" y="67.5" width="130" height="65" as="geometry" />
        </mxCell>
      </root>
    </mxGraphModel>
  </diagram>
</mxfile>
